<svg width="40" height="55" viewBox="0 0 40 55" fill="none" xmlns="http://www.w3.org/2000/svg">
<g clip-path="url(#clip0_83_2)">
<path fill-rule="evenodd" clip-rule="evenodd" d="M31.2309 59.4313C30.1468 57.3734 24.9319 53.4235 27.0337 45.0604C27.6556 42.5865 28.7508 40.1404 29.7953 38.0556C33.8559 29.9584 35.0765 23.959 30.645 15.2633C28.5035 11.0585 25.6138 6.80843 25.6138 0.571777C25.2761 0.694083 25.134 0.435574 24.6007 1.99867C24.3064 2.86037 24.1726 3.10591 24.1117 4.14272C23.845 8.68563 25.0796 11.8785 27.0208 16.0823C27.5938 17.323 28.1751 18.3329 28.5884 19.5856C32.6906 32.0219 25.3508 34.4615 23.4151 44.9992C23.2582 45.8544 23.2287 46.4094 23.0949 47.3119C22.4417 51.7103 25.0214 54.7827 28.1539 57.2557C28.8588 57.8116 30.4633 59.2246 31.2309 59.4313Z" fill="#F9FAFB"/>
<path fill-rule="evenodd" clip-rule="evenodd" d="M19.2465 56.9861C20.1065 56.9861 23.4446 56.1022 24.4891 55.8575C24.4134 54.944 22.9547 53.6014 22.8043 53.6014L17.7417 53.9915C16.3023 54.2889 18.8055 56.9861 19.2465 56.9861Z" fill="#F9FAFB"/>
<path fill-rule="evenodd" clip-rule="evenodd" d="M16.2507 51.1562C16.2507 51.7205 16.438 51.8919 16.5708 52.3394C16.7738 53.0241 16.7563 53.4698 17.5867 53.5513L19.0528 53.4086C19.933 53.3808 20.7588 53.3716 21.377 53.29C23.4013 53.0241 22.3531 53.4911 21.6814 50.5928C20.6822 50.5928 19.683 50.5956 18.6846 50.5919C17.7454 50.5891 16.2507 50.2862 16.2507 51.1562Z" fill="#F9FAFB"/>
<path fill-rule="evenodd" clip-rule="evenodd" d="M16.0634 47.2072V49.8405C16.6492 49.8886 16.6991 50.0323 17.3209 49.9785L21.3059 49.8405L21.245 48.2338C21.2441 48.2051 21.2312 47.6927 21.2302 47.689C21.0808 46.6299 19.8444 47.02 16.9989 47.02C16.7037 47.02 16.2894 47.1192 16.0634 47.2072Z" fill="#F9FAFB"/>
<path fill-rule="evenodd" clip-rule="evenodd" d="M16.2507 46.6438C20.8224 46.6438 21.5855 47.3008 21.7599 44.4275C21.8217 43.4037 21.3124 44.0115 19.5132 43.7428C18.6025 43.6066 17.3108 43.361 16.8836 44.0819C16.7157 44.3654 16.2599 46.2065 16.2507 46.6438Z" fill="#F9FAFB"/>
<path fill-rule="evenodd" clip-rule="evenodd" d="M17.5608 43.0701C21.1029 43.0701 21.7082 44.1569 22.6391 42.5299C22.9233 42.0333 23.1604 41.6497 23.1789 40.8139C21.8558 40.8139 20.7754 40.4377 19.2465 40.4377C18.6366 40.4377 17.6208 42.3492 17.5608 43.0701Z" fill="#F9FAFB"/>
<path fill-rule="evenodd" clip-rule="evenodd" d="M19.4338 39.6854C20.0419 39.9791 22.7702 40.4377 23.7408 40.4377C24.1034 39.8939 24.8 38.9497 24.8646 38.1807C23.3957 38.1807 21.9785 37.6173 20.5576 37.6173C20.2236 38.1186 19.5796 39.0563 19.4338 39.6854Z" fill="#F9FAFB"/>
<path fill-rule="evenodd" clip-rule="evenodd" d="M22.0551 34.9841C25.5584 34.9841 27.2321 36.1673 27.4858 33.1041C23.8838 33.1041 22.7701 31.9033 22.0551 34.9841Z" fill="#F9FAFB"/>
<path fill-rule="evenodd" clip-rule="evenodd" d="M20.9322 37.2411C22.092 37.3375 23.9576 37.7368 25.0519 37.9935C25.5861 37.1911 26.0825 36.9437 26.362 35.7364L21.8687 35.3602C21.4784 35.9458 21.0023 36.3896 20.9322 37.2411Z" fill="#F9FAFB"/>
<path fill-rule="evenodd" clip-rule="evenodd" d="M20.5567 10.914C20.7569 11.3309 20.8935 12.0166 20.9996 12.0045L23.8949 11.671C23.9613 11.6626 23.6541 10.9177 23.5535 10.5378C22.1391 10.5378 21.5449 10.4229 20.5567 10.914ZM20.9664 12.2983C21.0199 12.5558 21.0429 12.655 21.1481 12.9422C21.5947 14.1579 21.8318 13.5463 24.6773 13.5463C24.6653 13.0163 24.4466 12.5355 24.1689 11.9675C23.3634 12.2816 21.8678 12.2964 20.9664 12.2983Z" fill="#F9FAFB"/>
<path fill-rule="evenodd" clip-rule="evenodd" d="M23.3662 32.5398C24.3922 32.5398 24.4651 32.7056 25.42 32.7344C26.2107 32.7575 27.0623 32.7279 27.8604 32.7279C28.0191 30.8108 29.739 30.847 24.8646 30.847C23.8349 30.847 23.4446 31.5938 23.3662 32.5398Z" fill="#F9FAFB"/>
<path fill-rule="evenodd" clip-rule="evenodd" d="M24.6773 28.4028C25.4172 28.576 28.9842 29.144 28.9842 27.8385C28.9842 26.6896 28.7619 26.8675 27.305 26.8916C26.554 26.9045 25.8029 26.898 25.0519 26.898C24.9319 27.416 24.7972 27.8858 24.6773 28.4028Z" fill="#F9FAFB"/>
<path fill-rule="evenodd" clip-rule="evenodd" d="M24.6773 30.4708H27.8605C28.5774 30.4708 29.261 28.967 28.2351 28.967H25.0519C24.4715 28.967 23.5904 30.4708 24.6773 30.4708Z" fill="#F9FAFB"/>
<path fill-rule="evenodd" clip-rule="evenodd" d="M25.2392 25.7704V26.5218H28.9842C28.9842 24.3759 29.3939 24.8299 25.4265 24.8299C25.3287 25.2515 25.2392 25.2617 25.2392 25.7704Z" fill="#F9FAFB"/>
<path fill-rule="evenodd" clip-rule="evenodd" d="M24.6773 21.2571L25.0777 22.5645C28.5792 22.6052 29.1291 22.9323 28.0477 20.8809C27.3262 20.8809 25.3047 21.1098 24.6773 21.2571Z" fill="#F9FAFB"/>
<path fill-rule="evenodd" clip-rule="evenodd" d="M25.2392 23.5133C25.2392 24.7539 25.1276 24.4537 28.9833 24.4537C28.9833 22.6682 28.9999 22.949 25.8011 22.949C25.3693 22.949 25.2392 23.0806 25.2392 23.5133Z" fill="#F9FAFB"/>
<path fill-rule="evenodd" clip-rule="evenodd" d="M21.6814 13.9234C21.7386 14.6239 21.9748 14.9176 22.2424 15.4272C26.709 15.4272 25.5621 14.7814 24.8646 13.7354C23.75 13.7354 23.0211 13.9234 21.6814 13.9234Z" fill="#F9FAFB"/>
<path fill-rule="evenodd" clip-rule="evenodd" d="M23.9281 19C29.3625 19 26.1941 17.3081 26.1747 17.3081C25.4172 17.3081 24.37 17.36 23.7352 17.5092C22.6862 17.7547 23.5729 18.4672 23.9281 19Z" fill="#F9FAFB"/>
<path fill-rule="evenodd" clip-rule="evenodd" d="M24.1154 19.5643C24.1154 20.6734 24.6403 20.7864 25.2853 20.7503C26.279 20.6929 27.1048 20.5678 27.8604 20.5048C27.7239 18.8638 27.5384 19.1881 24.6773 19.1881C24.3709 19.1881 24.1154 19.3012 24.1154 19.5643Z" fill="#F9FAFB"/>
<path fill-rule="evenodd" clip-rule="evenodd" d="M22.4297 15.8034L22.8301 17.1108C24.2113 17.12 25.4071 17.2034 26.3621 16.7438C25.9146 15.8062 26.0862 15.4986 25.0039 15.5597C23.9327 15.6209 23.2924 15.6014 22.4297 15.8034Z" fill="#F9FAFB"/>
<path fill-rule="evenodd" clip-rule="evenodd" d="M20.3703 9.41018C20.4691 9.83825 20.5152 9.84195 20.5576 10.3497C21.7312 10.3497 22.2313 10.384 23.1789 10.1616C23.1042 9.26193 22.9621 9.034 22.2424 9.034C21.5117 9.034 20.851 9.17761 20.3703 9.41018Z" fill="#F9FAFB"/>
<path fill-rule="evenodd" clip-rule="evenodd" d="M20.3703 8.09353C20.3703 8.97654 20.2439 9.14702 21.8853 8.85979C22.9907 8.66614 22.6714 8.53086 22.2424 7.71735C21.6916 7.72939 20.7366 7.91656 20.3703 8.09353Z" fill="#F9FAFB"/>
<path fill-rule="evenodd" clip-rule="evenodd" d="M20.5567 7.52924H22.0551C22.0191 7.09839 21.8826 6.4007 21.4932 6.4007C20.5705 6.4007 20.5567 6.60546 20.5567 7.52924Z" fill="#F9FAFB"/>
<circle cx="11" cy="54" r="4" fill="#F9FAFB"/>
<circle cx="12" cy="43" r="3" fill="#FBFAFB"/>
<circle cx="17.5" cy="34.5" r="2.5" fill="#FBFAFB"/>
<circle cx="22" cy="26" r="2" fill="#FBFAFB"/>
<circle cx="19.5" cy="18.5" r="1.5" fill="#FBFAFB"/>
<circle cx="18" cy="13" r="1" fill="#FBFAFB"/>
</g>
<defs>
<clipPath id="clip0_83_2">
<rect width="40" height="55" fill="white"/>
</clipPath>
</defs>
</svg>
