<svg xmlns="http://www.w3.org/2000/svg" xmlns:xlink="http://www.w3.org/1999/xlink" width="1975" zoomAndPan="magnify" viewBox="0 0 1481.25 358.49999" height="478" preserveAspectRatio="xMidYMid meet" version="1.0"><defs><g/><clipPath id="01a3cff989"><path d="M 54 25.417969 L 86 25.417969 L 86 57 L 54 57 Z M 54 25.417969 " clip-rule="nonzero"/></clipPath><clipPath id="da8f29cc59"><path d="M 21 300 L 53 300 L 53 332.609375 L 21 332.609375 Z M 21 300 " clip-rule="nonzero"/></clipPath><clipPath id="28d5c6fd9c"><path d="M 0.875 261 L 28 261 L 28 290 L 0.875 290 Z M 0.875 261 " clip-rule="nonzero"/></clipPath></defs><path fill="#ffdd52" d="M 176.097656 203.4375 L 121.53125 203.4375 L 121.53125 142.78125 L 168.917969 142.78125 C 179.902344 142.78125 189.476562 143.929688 195.917969 148.839844 C 217.011719 164.9375 209.949219 203.4375 176.097656 203.4375 Z M 107.175781 165.167969 C 107.175781 174.34375 104.554688 185.824219 101.820312 193.71875 L 90.90625 218.125 C 83.027344 233.917969 80.609375 236.929688 80.609375 256.148438 C 80.609375 269.960938 87.828125 283.910156 96.230469 292.429688 C 104.679688 301 100.515625 299.472656 121.53125 299.472656 L 121.53125 235.929688 L 154.558594 235.929688 C 156.738281 235.929688 155.398438 236.105469 158.332031 239.355469 L 206.425781 294.964844 C 208.1875 296.828125 209.152344 296.886719 209.835938 299.472656 L 252.917969 299.472656 C 252.917969 294.597656 252.265625 296.0625 246.242188 288.855469 C 244.976562 287.339844 243.964844 286.660156 242.757812 285.136719 L 225.023438 264.707031 C 223.816406 263.191406 222.824219 262.460938 221.496094 261.03125 L 207.511719 244.765625 C 203.929688 240.894531 199.84375 236.714844 196.914062 232.320312 C 199.113281 231.261719 203.824219 230.445312 206.347656 229.527344 C 209.511719 228.375 212.460938 227.214844 215.285156 225.519531 C 231.710938 215.648438 243.582031 199.222656 243.582031 177.441406 L 243.582031 168.777344 C 243.582031 147.714844 229.820312 127.726562 213.664062 118.71875 C 190.777344 105.953125 169.257812 109.566406 141.636719 109.566406 C 123.6875 109.566406 105.738281 109.566406 87.789062 109.566406 C 88.507812 112.667969 97.289062 127.847656 100.097656 134.734375 C 104.050781 144.4375 107.175781 153.71875 107.175781 165.167969 Z M 107.175781 165.167969 " fill-opacity="1" fill-rule="evenodd"/><path fill="#ffdd52" d="M 262.25 200.546875 C 262.25 221.507812 264.410156 239.601562 274.410156 256.914062 C 279.296875 265.371094 281.921875 269.804688 289.347656 277.273438 C 303.574219 291.578125 328.085938 303.804688 356.296875 303.804688 C 375.636719 303.804688 388.585938 302.917969 405.828125 295.132812 C 410.664062 292.953125 416.910156 289.667969 421.027344 286.589844 C 424.242188 284.191406 431.847656 278.625 433.835938 275.644531 L 409.605469 250.914062 C 404.136719 254.769531 400.273438 259.710938 390.460938 263.796875 C 347.261719 281.789062 297.429688 260.964844 297.429688 204.160156 C 297.429688 169.96875 322.617188 140.613281 357.734375 140.613281 C 373.171875 140.613281 385.878906 141.894531 399.378906 151.441406 L 407.273438 157.945312 C 414.695312 153.992188 427.117188 136.789062 431.679688 135.558594 C 427.265625 128.925781 412.296875 119.273438 404.890625 115.574219 C 378.285156 102.28125 345.539062 103.316406 318.449219 114.101562 C 297.808594 122.328125 279.234375 141.117188 270.957031 161.648438 C 266.601562 172.445312 262.25 185.585938 262.25 200.546875 Z M 262.25 200.546875 " fill-opacity="1" fill-rule="evenodd"/><path fill="#ffdd52" d="M 89.941406 295.867188 C 85.785156 287.964844 65.792969 272.796875 73.851562 240.683594 C 76.234375 231.183594 80.433594 221.792969 84.4375 213.785156 C 100.007812 182.695312 104.6875 159.65625 87.695312 126.265625 C 79.484375 110.121094 68.40625 93.800781 68.40625 69.855469 C 67.113281 70.324219 66.566406 69.332031 64.523438 75.332031 C 63.394531 78.640625 62.882812 79.585938 62.648438 83.566406 C 61.625 101.007812 66.359375 113.269531 73.800781 129.410156 C 76 134.175781 78.226562 138.054688 79.8125 142.863281 C 95.539062 190.617188 67.398438 199.984375 59.976562 240.449219 C 59.375 243.730469 59.261719 245.863281 58.75 249.328125 C 56.246094 266.21875 66.136719 278.015625 78.144531 287.511719 C 80.847656 289.644531 87 295.070312 89.941406 295.867188 Z M 89.941406 295.867188 " fill-opacity="1" fill-rule="evenodd"/><g clip-path="url(#01a3cff989)"><path fill="#ffdd52" d="M 54.046875 40.246094 C 54.046875 62.054688 85.632812 63.25 85.632812 39.523438 C 85.632812 20.691406 54.046875 19.671875 54.046875 40.246094 Z M 54.046875 40.246094 " fill-opacity="1" fill-rule="evenodd"/></g><g clip-path="url(#da8f29cc59)"><path fill="#ffdd52" d="M 21.019531 315.359375 C 21.019531 336.730469 52.609375 338.816406 52.609375 314.636719 C 52.609375 307.164062 45.683594 300.195312 38.25 300.195312 C 33.136719 300.195312 28.636719 300.890625 25.1875 305.109375 C 23.328125 307.386719 21.019531 311.433594 21.019531 315.359375 Z M 21.019531 315.359375 " fill-opacity="1" fill-rule="evenodd"/></g><g clip-path="url(#28d5c6fd9c)"><path fill="#ffdd52" d="M 0.203125 274.203125 C 0.203125 295.351562 28.085938 293.210938 27.75 275.019531 C 27.40625 256.289062 0.203125 257.839844 0.203125 274.203125 Z M 0.203125 274.203125 " fill-opacity="1" fill-rule="evenodd"/></g><path fill="#ffdd52" d="M 59.070312 300.195312 C 61.082031 302.953125 65.664062 303.699219 68.507812 305.871094 C 72.585938 308.988281 72.183594 308.910156 80.652344 309.542969 C 86.058594 309.945312 90.351562 309.753906 94.859375 311.136719 C 103.625 313.820312 97.074219 320.058594 107.890625 317.523438 C 107.890625 311.8125 106.960938 309.425781 100.914062 303.605469 C 97.132812 299.972656 86.257812 295.121094 80.820312 292.707031 C 77.03125 291.027344 76.574219 292.085938 73.441406 293.699219 C 68.847656 296.0625 63.683594 297.738281 59.070312 300.195312 Z M 59.070312 300.195312 " fill-opacity="1" fill-rule="evenodd"/><path fill="#ffdd52" d="M 5.226562 232.320312 C 5.226562 248.644531 28.796875 248.601562 29.207031 232.945312 C 29.28125 230.054688 28.195312 227.078125 26.34375 224.800781 C 19.933594 216.902344 5.226562 220.722656 5.226562 232.320312 Z M 5.226562 232.320312 " fill-opacity="1" fill-rule="evenodd"/><path fill="#ffdd52" d="M 44.714844 288.644531 C 45.496094 291.585938 47.679688 292.527344 49.941406 294.214844 C 51.355469 295.269531 55.40625 298.75 56.917969 298.75 C 59.175781 298.75 73.984375 292.042969 76.304688 290.808594 C 75.035156 288.90625 67 283.585938 66.972656 283.585938 Z M 44.714844 288.644531 " fill-opacity="1" fill-rule="evenodd"/><path fill="#ffdd52" d="M 29.636719 196.9375 C 29.636719 211.085938 47.585938 211.347656 47.585938 196.9375 C 47.585938 186.402344 29.636719 186.402344 29.636719 196.9375 Z M 29.636719 196.9375 " fill-opacity="1" fill-rule="evenodd"/><path fill="#ffdd52" d="M 43.996094 286.476562 C 47.292969 286.476562 60.089844 283.082031 64.09375 282.140625 C 63.804688 278.632812 58.210938 273.480469 57.636719 273.480469 L 38.226562 274.976562 C 32.707031 276.121094 42.304688 286.476562 43.996094 286.476562 Z M 43.996094 286.476562 " fill-opacity="1" fill-rule="evenodd"/><path fill="#ffdd52" d="M 32.507812 264.089844 C 32.507812 266.257812 33.226562 266.914062 33.738281 268.632812 C 34.515625 271.261719 34.449219 272.972656 37.632812 273.285156 L 43.253906 272.738281 C 46.628906 272.632812 49.792969 272.597656 52.164062 272.285156 C 59.925781 271.261719 55.90625 273.054688 53.332031 261.925781 C 49.5 261.925781 45.667969 261.9375 41.839844 261.921875 C 38.238281 261.914062 32.507812 260.75 32.507812 264.089844 Z M 32.507812 264.089844 " fill-opacity="1" fill-rule="evenodd"/><path fill="#ffdd52" d="M 31.792969 248.925781 L 31.792969 259.039062 C 34.039062 259.222656 34.226562 259.773438 36.613281 259.566406 L 51.890625 259.039062 L 51.65625 252.867188 C 51.652344 252.757812 51.605469 250.789062 51.601562 250.777344 C 51.027344 246.710938 46.289062 248.207031 35.378906 248.207031 C 34.246094 248.207031 32.65625 248.589844 31.792969 248.925781 Z M 31.792969 248.925781 " fill-opacity="1" fill-rule="evenodd"/><path fill="#ffdd52" d="M 32.507812 246.761719 C 50.039062 246.761719 52.960938 249.285156 53.632812 238.253906 C 53.867188 234.320312 51.914062 236.65625 45.019531 235.625 C 41.527344 235.101562 36.574219 234.15625 34.9375 236.925781 C 34.292969 238.015625 32.542969 245.085938 32.507812 246.761719 Z M 32.507812 246.761719 " fill-opacity="1" fill-rule="evenodd"/><path fill="#ffdd52" d="M 45.429688 167.335938 L 45.429688 170.21875 C 45.429688 179.28125 60.507812 179.234375 60.507812 170.21875 C 60.507812 167.730469 60.84375 165.558594 58.066406 163.285156 C 52.933594 159.085938 45.429688 163.007812 45.429688 167.335938 Z M 45.429688 167.335938 " fill-opacity="1" fill-rule="evenodd"/><path fill="#ffdd52" d="M 37.53125 233.039062 C 51.113281 233.039062 53.433594 237.214844 57.003906 230.964844 C 58.09375 229.058594 59 227.585938 59.070312 224.378906 C 54 224.378906 49.855469 222.933594 43.996094 222.933594 C 41.65625 222.933594 37.761719 230.273438 37.53125 233.039062 Z M 37.53125 233.039062 " fill-opacity="1" fill-rule="evenodd"/><path fill="#ffdd52" d="M 44.714844 220.042969 C 47.042969 221.171875 57.503906 222.933594 61.226562 222.933594 C 62.617188 220.84375 65.289062 217.21875 65.535156 214.265625 C 59.902344 214.265625 54.46875 212.101562 49.023438 212.101562 C 47.742188 214.027344 45.273438 217.628906 44.714844 220.042969 Z M 44.714844 220.042969 " fill-opacity="1" fill-rule="evenodd"/><path fill="#ffdd52" d="M 54.761719 201.992188 C 68.195312 201.992188 74.613281 206.535156 75.585938 194.773438 C 61.773438 194.773438 57.503906 190.160156 54.761719 201.992188 Z M 54.761719 201.992188 " fill-opacity="1" fill-rule="evenodd"/><path fill="#ffdd52" d="M 50.457031 210.660156 C 54.90625 211.027344 62.058594 212.5625 66.253906 213.546875 C 68.300781 210.464844 70.203125 209.515625 71.277344 204.878906 L 54.046875 203.4375 C 52.550781 205.683594 50.726562 207.390625 50.457031 210.660156 Z M 50.457031 210.660156 " fill-opacity="1" fill-rule="evenodd"/><path fill="#ffdd52" d="M 49.019531 109.566406 C 49.785156 111.167969 50.308594 113.800781 50.714844 113.753906 L 61.816406 112.472656 C 62.070312 112.441406 60.894531 109.582031 60.507812 108.121094 C 55.085938 108.121094 52.808594 107.679688 49.019531 109.566406 Z M 50.589844 114.882812 C 50.792969 115.871094 50.882812 116.25 51.285156 117.355469 C 53 122.023438 53.90625 119.671875 64.816406 119.671875 C 64.769531 117.636719 63.933594 115.792969 62.867188 113.613281 C 59.777344 114.816406 54.046875 114.875 50.589844 114.882812 Z M 50.589844 114.882812 " fill-opacity="1" fill-rule="evenodd"/><path fill="#ffdd52" d="M 59.789062 192.605469 C 63.722656 192.605469 64.003906 193.242188 67.664062 193.351562 C 70.695312 193.441406 73.960938 193.328125 77.019531 193.328125 C 77.628906 185.96875 84.222656 186.105469 65.535156 186.105469 C 61.585938 186.105469 60.089844 188.972656 59.789062 192.605469 Z M 59.789062 192.605469 " fill-opacity="1" fill-rule="evenodd"/><path fill="#ffdd52" d="M 39.6875 140.613281 C 39.6875 149.03125 51.171875 146.988281 51.171875 142.058594 C 51.171875 136.164062 49.851562 134.835938 43.996094 134.835938 C 41.667969 134.835938 39.6875 137.976562 39.6875 140.613281 Z M 39.6875 140.613281 " fill-opacity="1" fill-rule="evenodd"/><path fill="#ffdd52" d="M 64.816406 176.71875 C 67.652344 177.386719 81.328125 179.566406 81.328125 174.554688 C 81.328125 170.140625 80.476562 170.824219 74.890625 170.917969 C 72.011719 170.96875 69.132812 170.941406 66.253906 170.941406 C 65.792969 172.929688 65.277344 174.734375 64.816406 176.71875 Z M 64.816406 176.71875 " fill-opacity="1" fill-rule="evenodd"/><path fill="#ffdd52" d="M 64.816406 184.660156 L 77.019531 184.660156 C 79.769531 184.660156 82.390625 178.886719 78.457031 178.886719 L 66.253906 178.886719 C 64.027344 178.886719 60.648438 184.660156 64.816406 184.660156 Z M 64.816406 184.660156 " fill-opacity="1" fill-rule="evenodd"/><path fill="#ffdd52" d="M 66.972656 166.613281 L 66.972656 169.496094 L 81.328125 169.496094 C 81.328125 161.257812 82.898438 163 67.6875 163 C 67.3125 164.621094 66.972656 164.660156 66.972656 166.613281 Z M 66.972656 166.613281 " fill-opacity="1" fill-rule="evenodd"/><path fill="#ffdd52" d="M 64.816406 149.28125 L 66.351562 154.300781 C 79.777344 154.460938 81.886719 155.714844 77.738281 147.839844 C 74.972656 147.839844 67.222656 148.714844 64.816406 149.28125 Z M 64.816406 149.28125 " fill-opacity="1" fill-rule="evenodd"/><path fill="#ffdd52" d="M 66.972656 157.945312 C 66.972656 162.710938 66.542969 161.554688 81.324219 161.554688 C 81.324219 154.699219 81.390625 155.777344 69.125 155.777344 C 67.46875 155.777344 66.972656 156.285156 66.972656 157.945312 Z M 66.972656 157.945312 " fill-opacity="1" fill-rule="evenodd"/><path fill="#ffdd52" d="M 53.332031 121.121094 C 53.550781 123.8125 54.457031 124.9375 55.480469 126.894531 C 72.605469 126.894531 68.210938 124.417969 65.535156 120.398438 C 61.261719 120.398438 58.46875 121.121094 53.332031 121.121094 Z M 53.332031 121.121094 " fill-opacity="1" fill-rule="evenodd"/><path fill="#ffdd52" d="M 38.25 121.121094 C 44.839844 121.121094 44.839844 111.011719 38.25 111.011719 C 32.019531 111.011719 32.019531 121.121094 38.25 121.121094 Z M 38.25 121.121094 " fill-opacity="1" fill-rule="evenodd"/><path fill="#ffdd52" d="M 61.945312 140.613281 C 82.78125 140.613281 70.632812 134.117188 70.558594 134.117188 C 67.652344 134.117188 63.636719 134.316406 61.203125 134.890625 C 57.183594 135.832031 60.582031 138.570312 61.945312 140.613281 Z M 61.945312 140.613281 " fill-opacity="1" fill-rule="evenodd"/><path fill="#ffdd52" d="M 62.664062 142.78125 C 62.664062 147.039062 64.675781 147.476562 67.148438 147.335938 C 70.957031 147.117188 74.125 146.636719 77.019531 146.394531 C 76.496094 140.09375 75.785156 141.335938 64.816406 141.335938 C 63.640625 141.335938 62.664062 141.773438 62.664062 142.78125 Z M 62.664062 142.78125 " fill-opacity="1" fill-rule="evenodd"/><path fill="#ffdd52" d="M 56.199219 128.339844 L 57.734375 133.359375 C 63.03125 133.398438 67.613281 133.71875 71.277344 131.953125 C 69.558594 128.351562 70.21875 127.171875 66.070312 127.40625 C 61.960938 127.640625 59.507812 127.566406 56.199219 128.339844 Z M 56.199219 128.339844 " fill-opacity="1" fill-rule="evenodd"/><path fill="#ffdd52" d="M 48.304688 103.792969 C 48.683594 105.433594 48.859375 105.449219 49.023438 107.398438 C 53.519531 107.398438 55.4375 107.53125 59.070312 106.675781 C 58.785156 103.222656 58.242188 102.347656 55.480469 102.347656 C 52.679688 102.347656 50.148438 102.898438 48.304688 103.792969 Z M 48.304688 103.792969 " fill-opacity="1" fill-rule="evenodd"/><path fill="#ffdd52" d="M 48.304688 98.734375 C 48.304688 102.125 47.820312 102.78125 54.113281 101.679688 C 58.351562 100.933594 57.125 100.414062 55.480469 97.292969 C 53.371094 97.335938 49.707031 98.054688 48.304688 98.734375 Z M 48.304688 98.734375 " fill-opacity="1" fill-rule="evenodd"/><path fill="#ffdd52" d="M 49.019531 96.570312 L 54.761719 96.570312 C 54.625 94.914062 54.101562 92.234375 52.609375 92.234375 C 49.070312 92.234375 49.019531 93.023438 49.019531 96.570312 Z M 49.019531 96.570312 " fill-opacity="1" fill-rule="evenodd"/><path fill="#ffdd52" d="M 89.941406 295.863281 L 89.941406 296.582031 L 90.78125 295.984375 Z M 89.941406 295.863281 " fill-opacity="1" fill-rule="evenodd"/><g fill="#ffdd52" fill-opacity="1"><g transform="translate(538.795827, 142.256994)"><g><path d="M 9.75 -74.953125 L 26.234375 -74.953125 L 26.234375 0 L 9.75 0 Z M 9.75 -74.953125 "/></g></g></g><g fill="#ffdd52" fill-opacity="1"><g transform="translate(574.771495, 142.256994)"><g><path d="M 7.28125 -57.390625 L 23.5625 -57.390625 L 23.5625 -49.25 C 24.488281 -50.46875 25.503906 -51.628906 26.609375 -52.734375 C 27.710938 -53.835938 28.941406 -54.816406 30.296875 -55.671875 C 31.660156 -56.535156 33.160156 -57.21875 34.796875 -57.71875 C 36.441406 -58.21875 38.300781 -58.46875 40.375 -58.46875 C 46.582031 -58.46875 51.378906 -56.570312 54.765625 -52.78125 C 58.160156 -49 59.859375 -43.789062 59.859375 -37.15625 L 59.859375 0 L 43.578125 0 L 43.578125 -32.015625 C 43.578125 -35.867188 42.71875 -38.773438 41 -40.734375 C 39.289062 -42.703125 36.867188 -43.6875 33.734375 -43.6875 C 30.585938 -43.6875 28.101562 -42.703125 26.28125 -40.734375 C 24.46875 -38.773438 23.5625 -35.867188 23.5625 -32.015625 L 23.5625 0 L 7.28125 0 Z M 7.28125 -57.390625 "/></g></g></g><g fill="#ffdd52" fill-opacity="1"><g transform="translate(641.476388, 142.256994)"><g><path d="M 27.40625 1.078125 C 23.34375 1.078125 19.1875 0.378906 14.9375 -1.015625 C 10.6875 -2.410156 6.632812 -4.609375 2.78125 -7.609375 L 9.75 -18.3125 C 12.882812 -16.03125 16.003906 -14.316406 19.109375 -13.171875 C 22.210938 -12.023438 25.125 -11.453125 27.84375 -11.453125 C 30.195312 -11.453125 31.925781 -11.84375 33.03125 -12.625 C 34.132812 -13.414062 34.6875 -14.453125 34.6875 -15.734375 L 34.6875 -15.953125 C 34.6875 -16.804688 34.363281 -17.554688 33.71875 -18.203125 C 33.082031 -18.847656 32.210938 -19.398438 31.109375 -19.859375 C 30.003906 -20.328125 28.734375 -20.773438 27.296875 -21.203125 C 25.867188 -21.628906 24.375 -22.09375 22.8125 -22.59375 C 20.8125 -23.164062 18.789062 -23.859375 16.75 -24.671875 C 14.71875 -25.492188 12.878906 -26.566406 11.234375 -27.890625 C 9.597656 -29.210938 8.257812 -30.835938 7.21875 -32.765625 C 6.1875 -34.691406 5.671875 -37.046875 5.671875 -39.828125 L 5.671875 -40.046875 C 5.671875 -42.972656 6.222656 -45.5625 7.328125 -47.8125 C 8.441406 -50.0625 9.941406 -51.96875 11.828125 -53.53125 C 13.722656 -55.101562 15.9375 -56.28125 18.46875 -57.0625 C 21 -57.851562 23.726562 -58.25 26.65625 -58.25 C 30.300781 -58.25 33.992188 -57.660156 37.734375 -56.484375 C 41.484375 -55.304688 44.929688 -53.679688 48.078125 -51.609375 L 41.875 -40.375 C 39.007812 -42.007812 36.222656 -43.304688 33.515625 -44.265625 C 30.804688 -45.234375 28.414062 -45.71875 26.34375 -45.71875 C 24.34375 -45.71875 22.84375 -45.34375 21.84375 -44.59375 C 20.84375 -43.84375 20.34375 -42.898438 20.34375 -41.765625 L 20.34375 -41.546875 C 20.34375 -40.765625 20.660156 -40.066406 21.296875 -39.453125 C 21.941406 -38.847656 22.800781 -38.273438 23.875 -37.734375 C 24.945312 -37.203125 26.175781 -36.6875 27.5625 -36.1875 C 28.957031 -35.6875 30.441406 -35.1875 32.015625 -34.6875 C 34.015625 -34.050781 36.046875 -33.285156 38.109375 -32.390625 C 40.179688 -31.492188 42.039062 -30.40625 43.6875 -29.125 C 45.332031 -27.84375 46.6875 -26.269531 47.75 -24.40625 C 48.820312 -22.550781 49.359375 -20.304688 49.359375 -17.671875 L 49.359375 -17.453125 C 49.359375 -14.242188 48.804688 -11.476562 47.703125 -9.15625 C 46.597656 -6.832031 45.046875 -4.921875 43.046875 -3.421875 C 41.046875 -1.921875 38.707031 -0.796875 36.03125 -0.046875 C 33.351562 0.703125 30.476562 1.078125 27.40625 1.078125 Z M 27.40625 1.078125 "/></g></g></g><g fill="#ffdd52" fill-opacity="1"><g transform="translate(694.155014, 142.256994)"><g><path d="M 26.65625 0.96875 C 24.164062 0.96875 21.898438 0.695312 19.859375 0.15625 C 17.828125 -0.375 16.078125 -1.316406 14.609375 -2.671875 C 13.148438 -4.035156 12.007812 -5.804688 11.1875 -7.984375 C 10.363281 -10.160156 9.953125 -12.925781 9.953125 -16.28125 L 9.953125 -43.46875 L 3.109375 -43.46875 L 3.109375 -57.390625 L 9.953125 -57.390625 L 9.953125 -72.0625 L 26.234375 -72.0625 L 26.234375 -57.390625 L 39.71875 -57.390625 L 39.71875 -43.46875 L 26.234375 -43.46875 L 26.234375 -18.953125 C 26.234375 -15.242188 27.984375 -13.390625 31.484375 -13.390625 C 34.335938 -13.390625 37.015625 -14.066406 39.515625 -15.421875 L 39.515625 -2.359375 C 37.796875 -1.359375 35.898438 -0.554688 33.828125 0.046875 C 31.765625 0.660156 29.375 0.96875 26.65625 0.96875 Z M 26.65625 0.96875 "/></g></g></g><g fill="#ffdd52" fill-opacity="1"><g transform="translate(738.589257, 142.256994)"><g><path d="M 7.609375 -78.171875 L 24.734375 -78.171875 L 24.734375 -63.71875 L 7.609375 -63.71875 Z M 8.03125 -57.390625 L 24.3125 -57.390625 L 24.3125 0 L 8.03125 0 Z M 8.03125 -57.390625 "/></g></g></g><g fill="#ffdd52" fill-opacity="1"><g transform="translate(770.924532, 142.256994)"><g><path d="M 26.65625 0.96875 C 24.164062 0.96875 21.898438 0.695312 19.859375 0.15625 C 17.828125 -0.375 16.078125 -1.316406 14.609375 -2.671875 C 13.148438 -4.035156 12.007812 -5.804688 11.1875 -7.984375 C 10.363281 -10.160156 9.953125 -12.925781 9.953125 -16.28125 L 9.953125 -43.46875 L 3.109375 -43.46875 L 3.109375 -57.390625 L 9.953125 -57.390625 L 9.953125 -72.0625 L 26.234375 -72.0625 L 26.234375 -57.390625 L 39.71875 -57.390625 L 39.71875 -43.46875 L 26.234375 -43.46875 L 26.234375 -18.953125 C 26.234375 -15.242188 27.984375 -13.390625 31.484375 -13.390625 C 34.335938 -13.390625 37.015625 -14.066406 39.515625 -15.421875 L 39.515625 -2.359375 C 37.796875 -1.359375 35.898438 -0.554688 33.828125 0.046875 C 31.765625 0.660156 29.375 0.96875 26.65625 0.96875 Z M 26.65625 0.96875 "/></g></g></g><g fill="#ffdd52" fill-opacity="1"><g transform="translate(815.358776, 142.256994)"><g><path d="M 26.34375 1.078125 C 20.132812 1.078125 15.332031 -0.8125 11.9375 -4.59375 C 8.550781 -8.382812 6.859375 -13.597656 6.859375 -20.234375 L 6.859375 -57.390625 L 23.125 -57.390625 L 23.125 -25.375 C 23.125 -21.519531 23.976562 -18.609375 25.6875 -16.640625 C 27.40625 -14.679688 29.835938 -13.703125 32.984375 -13.703125 C 36.117188 -13.703125 38.597656 -14.679688 40.421875 -16.640625 C 42.242188 -18.609375 43.15625 -21.519531 43.15625 -25.375 L 43.15625 -57.390625 L 59.421875 -57.390625 L 59.421875 0 L 43.15625 0 L 43.15625 -8.140625 C 42.226562 -6.921875 41.207031 -5.757812 40.09375 -4.65625 C 38.988281 -3.550781 37.757812 -2.566406 36.40625 -1.703125 C 35.050781 -0.847656 33.550781 -0.171875 31.90625 0.328125 C 30.269531 0.828125 28.414062 1.078125 26.34375 1.078125 Z M 26.34375 1.078125 "/></g></g></g><g fill="#ffdd52" fill-opacity="1"><g transform="translate(882.063684, 142.256994)"><g><path d="M 26.65625 0.96875 C 24.164062 0.96875 21.898438 0.695312 19.859375 0.15625 C 17.828125 -0.375 16.078125 -1.316406 14.609375 -2.671875 C 13.148438 -4.035156 12.007812 -5.804688 11.1875 -7.984375 C 10.363281 -10.160156 9.953125 -12.925781 9.953125 -16.28125 L 9.953125 -43.46875 L 3.109375 -43.46875 L 3.109375 -57.390625 L 9.953125 -57.390625 L 9.953125 -72.0625 L 26.234375 -72.0625 L 26.234375 -57.390625 L 39.71875 -57.390625 L 39.71875 -43.46875 L 26.234375 -43.46875 L 26.234375 -18.953125 C 26.234375 -15.242188 27.984375 -13.390625 31.484375 -13.390625 C 34.335938 -13.390625 37.015625 -14.066406 39.515625 -15.421875 L 39.515625 -2.359375 C 37.796875 -1.359375 35.898438 -0.554688 33.828125 0.046875 C 31.765625 0.660156 29.375 0.96875 26.65625 0.96875 Z M 26.65625 0.96875 "/></g></g></g><g fill="#ffdd52" fill-opacity="1"><g transform="translate(924.891816, 142.256994)"><g><path d="M 35.4375 1.28125 C 31.007812 1.28125 26.90625 0.515625 23.125 -1.015625 C 19.34375 -2.546875 16.078125 -4.648438 13.328125 -7.328125 C 10.578125 -10.003906 8.414062 -13.144531 6.84375 -16.75 C 5.28125 -20.363281 4.5 -24.238281 4.5 -28.375 L 4.5 -28.59375 C 4.5 -32.726562 5.28125 -36.597656 6.84375 -40.203125 C 8.414062 -43.804688 10.59375 -46.960938 13.375 -49.671875 C 16.164062 -52.390625 19.453125 -54.535156 23.234375 -56.109375 C 27.015625 -57.679688 31.15625 -58.46875 35.65625 -58.46875 C 40.082031 -58.46875 44.1875 -57.695312 47.96875 -56.15625 C 51.75 -54.625 55.015625 -52.519531 57.765625 -49.84375 C 60.515625 -47.164062 62.675781 -44.023438 64.25 -40.421875 C 65.820312 -36.816406 66.609375 -32.941406 66.609375 -28.796875 L 66.609375 -28.59375 C 66.609375 -24.445312 65.820312 -20.570312 64.25 -16.96875 C 62.675781 -13.363281 60.492188 -10.203125 57.703125 -7.484375 C 54.921875 -4.773438 51.640625 -2.632812 47.859375 -1.0625 C 44.078125 0.5 39.9375 1.28125 35.4375 1.28125 Z M 35.65625 -12.75 C 38.007812 -12.75 40.097656 -13.15625 41.921875 -13.96875 C 43.742188 -14.789062 45.296875 -15.914062 46.578125 -17.34375 C 47.859375 -18.769531 48.835938 -20.425781 49.515625 -22.3125 C 50.203125 -24.207031 50.546875 -26.226562 50.546875 -28.375 L 50.546875 -28.59375 C 50.546875 -30.726562 50.1875 -32.742188 49.46875 -34.640625 C 48.757812 -36.535156 47.722656 -38.210938 46.359375 -39.671875 C 45.003906 -41.140625 43.398438 -42.300781 41.546875 -43.15625 C 39.691406 -44.007812 37.65625 -44.4375 35.4375 -44.4375 C 33.082031 -44.4375 30.992188 -44.023438 29.171875 -43.203125 C 27.359375 -42.378906 25.804688 -41.253906 24.515625 -39.828125 C 23.234375 -38.398438 22.253906 -36.738281 21.578125 -34.84375 C 20.898438 -32.957031 20.5625 -30.941406 20.5625 -28.796875 L 20.5625 -28.59375 C 20.5625 -26.445312 20.914062 -24.425781 21.625 -22.53125 C 22.34375 -20.644531 23.378906 -18.96875 24.734375 -17.5 C 26.085938 -16.039062 27.675781 -14.882812 29.5 -14.03125 C 31.320312 -13.175781 33.375 -12.75 35.65625 -12.75 Z M 35.65625 -12.75 "/></g></g></g><g fill="#ffdd52" fill-opacity="1"><g transform="translate(538.795827, 290.601675)"><g><path d="M 9 -74.953125 L 43.265625 -74.953125 C 52.753906 -74.953125 60.035156 -72.421875 65.109375 -67.359375 C 69.390625 -63.066406 71.53125 -57.351562 71.53125 -50.21875 L 71.53125 -50 C 71.53125 -43.9375 70.046875 -38.992188 67.078125 -35.171875 C 64.117188 -31.359375 60.25 -28.554688 55.46875 -26.765625 L 73.78125 0 L 54.5 0 L 38.4375 -23.984375 L 25.484375 -23.984375 L 25.484375 0 L 9 0 Z M 42.1875 -38.546875 C 46.257812 -38.546875 49.382812 -39.507812 51.5625 -41.4375 C 53.738281 -43.363281 54.828125 -45.9375 54.828125 -49.15625 L 54.828125 -49.359375 C 54.828125 -52.929688 53.679688 -55.609375 51.390625 -57.390625 C 49.109375 -59.179688 45.9375 -60.078125 41.875 -60.078125 L 25.484375 -60.078125 L 25.484375 -38.546875 Z M 42.1875 -38.546875 "/></g></g></g><g fill="#ffdd52" fill-opacity="1"><g transform="translate(615.137022, 290.601675)"><g><path d="M 34.484375 1.28125 C 30.191406 1.28125 26.207031 0.566406 22.53125 -0.859375 C 18.863281 -2.285156 15.691406 -4.316406 13.015625 -6.953125 C 10.335938 -9.597656 8.25 -12.722656 6.75 -16.328125 C 5.25 -19.929688 4.5 -23.945312 4.5 -28.375 L 4.5 -28.59375 C 4.5 -32.65625 5.191406 -36.503906 6.578125 -40.140625 C 7.972656 -43.785156 9.921875 -46.960938 12.421875 -49.671875 C 14.921875 -52.390625 17.898438 -54.535156 21.359375 -56.109375 C 24.828125 -57.679688 28.664062 -58.46875 32.875 -58.46875 C 37.65625 -58.46875 41.796875 -57.609375 45.296875 -55.890625 C 48.796875 -54.179688 51.703125 -51.878906 54.015625 -48.984375 C 56.335938 -46.097656 58.050781 -42.78125 59.15625 -39.03125 C 60.269531 -35.28125 60.828125 -31.375 60.828125 -27.3125 C 60.828125 -26.664062 60.804688 -25.984375 60.765625 -25.265625 C 60.734375 -24.554688 60.679688 -23.804688 60.609375 -23.015625 L 20.671875 -23.015625 C 21.453125 -19.304688 23.070312 -16.503906 25.53125 -14.609375 C 28 -12.722656 31.050781 -11.78125 34.6875 -11.78125 C 37.40625 -11.78125 39.832031 -12.242188 41.96875 -13.171875 C 44.113281 -14.097656 46.328125 -15.597656 48.609375 -17.671875 L 57.921875 -9.421875 C 55.210938 -6.066406 51.929688 -3.441406 48.078125 -1.546875 C 44.222656 0.335938 39.691406 1.28125 34.484375 1.28125 Z M 44.96875 -33.1875 C 44.46875 -36.832031 43.179688 -39.78125 41.109375 -42.03125 C 39.046875 -44.28125 36.300781 -45.40625 32.875 -45.40625 C 29.445312 -45.40625 26.679688 -44.296875 24.578125 -42.078125 C 22.472656 -39.867188 21.097656 -36.90625 20.453125 -33.1875 Z M 44.96875 -33.1875 "/></g></g></g><g fill="#ffdd52" fill-opacity="1"><g transform="translate(680.771215, 290.601675)"><g><path d="M 7.28125 -57.390625 L 23.5625 -57.390625 L 23.5625 -49.25 C 24.488281 -50.46875 25.503906 -51.628906 26.609375 -52.734375 C 27.710938 -53.835938 28.941406 -54.816406 30.296875 -55.671875 C 31.660156 -56.535156 33.160156 -57.21875 34.796875 -57.71875 C 36.441406 -58.21875 38.300781 -58.46875 40.375 -58.46875 C 46.582031 -58.46875 51.378906 -56.570312 54.765625 -52.78125 C 58.160156 -49 59.859375 -43.789062 59.859375 -37.15625 L 59.859375 0 L 43.578125 0 L 43.578125 -32.015625 C 43.578125 -35.867188 42.71875 -38.773438 41 -40.734375 C 39.289062 -42.703125 36.867188 -43.6875 33.734375 -43.6875 C 30.585938 -43.6875 28.101562 -42.703125 26.28125 -40.734375 C 24.46875 -38.773438 23.5625 -35.867188 23.5625 -32.015625 L 23.5625 0 L 7.28125 0 Z M 7.28125 -57.390625 "/></g></g></g><g fill="#ffdd52" fill-opacity="1"><g transform="translate(747.476109, 290.601675)"><g><path d="M 23.5625 1.078125 C 20.84375 1.078125 18.285156 0.703125 15.890625 -0.046875 C 13.503906 -0.796875 11.414062 -1.921875 9.625 -3.421875 C 7.84375 -4.921875 6.4375 -6.757812 5.40625 -8.9375 C 4.375 -11.113281 3.859375 -13.628906 3.859375 -16.484375 L 3.859375 -16.703125 C 3.859375 -19.847656 4.425781 -22.5625 5.5625 -24.84375 C 6.707031 -27.125 8.296875 -29.015625 10.328125 -30.515625 C 12.367188 -32.015625 14.796875 -33.140625 17.609375 -33.890625 C 20.429688 -34.640625 23.554688 -35.015625 26.984375 -35.015625 C 29.910156 -35.015625 32.460938 -34.800781 34.640625 -34.375 C 36.816406 -33.945312 38.941406 -33.375 41.015625 -32.65625 L 41.015625 -33.625 C 41.015625 -37.050781 39.976562 -39.65625 37.90625 -41.4375 C 35.832031 -43.21875 32.765625 -44.109375 28.703125 -44.109375 C 25.554688 -44.109375 22.785156 -43.84375 20.390625 -43.3125 C 18.003906 -42.78125 15.488281 -42.015625 12.84375 -41.015625 L 8.78125 -53.4375 C 11.914062 -54.789062 15.195312 -55.894531 18.625 -56.75 C 22.050781 -57.601562 26.191406 -58.03125 31.046875 -58.03125 C 35.546875 -58.03125 39.382812 -57.476562 42.5625 -56.375 C 45.738281 -55.269531 48.363281 -53.679688 50.4375 -51.609375 C 52.570312 -49.472656 54.140625 -46.847656 55.140625 -43.734375 C 56.140625 -40.628906 56.640625 -37.148438 56.640625 -33.296875 L 56.640625 0 L 40.90625 0 L 40.90625 -6.203125 C 38.90625 -3.992188 36.507812 -2.226562 33.71875 -0.90625 C 30.9375 0.414062 27.550781 1.078125 23.5625 1.078125 Z M 28.484375 -10.171875 C 32.335938 -10.171875 35.421875 -11.097656 37.734375 -12.953125 C 40.054688 -14.804688 41.21875 -17.234375 41.21875 -20.234375 L 41.21875 -23.125 C 39.789062 -23.769531 38.203125 -24.285156 36.453125 -24.671875 C 34.710938 -25.066406 32.84375 -25.265625 30.84375 -25.265625 C 27.34375 -25.265625 24.59375 -24.585938 22.59375 -23.234375 C 20.59375 -21.878906 19.59375 -19.914062 19.59375 -17.34375 L 19.59375 -17.125 C 19.59375 -14.914062 20.410156 -13.203125 22.046875 -11.984375 C 23.691406 -10.773438 25.835938 -10.171875 28.484375 -10.171875 Z M 28.484375 -10.171875 "/></g></g></g><g fill="#ffdd52" fill-opacity="1"><g transform="translate(810.326433, 290.601675)"><g><path d="M 26.65625 0.96875 C 24.164062 0.96875 21.898438 0.695312 19.859375 0.15625 C 17.828125 -0.375 16.078125 -1.316406 14.609375 -2.671875 C 13.148438 -4.035156 12.007812 -5.804688 11.1875 -7.984375 C 10.363281 -10.160156 9.953125 -12.925781 9.953125 -16.28125 L 9.953125 -43.46875 L 3.109375 -43.46875 L 3.109375 -57.390625 L 9.953125 -57.390625 L 9.953125 -72.0625 L 26.234375 -72.0625 L 26.234375 -57.390625 L 39.71875 -57.390625 L 39.71875 -43.46875 L 26.234375 -43.46875 L 26.234375 -18.953125 C 26.234375 -15.242188 27.984375 -13.390625 31.484375 -13.390625 C 34.335938 -13.390625 37.015625 -14.066406 39.515625 -15.421875 L 39.515625 -2.359375 C 37.796875 -1.359375 35.898438 -0.554688 33.828125 0.046875 C 31.765625 0.660156 29.375 0.96875 26.65625 0.96875 Z M 26.65625 0.96875 "/></g></g></g><g fill="#ffdd52" fill-opacity="1"><g transform="translate(853.154565, 290.601675)"><g><path d="M 35.4375 1.28125 C 31.007812 1.28125 26.90625 0.515625 23.125 -1.015625 C 19.34375 -2.546875 16.078125 -4.648438 13.328125 -7.328125 C 10.578125 -10.003906 8.414062 -13.144531 6.84375 -16.75 C 5.28125 -20.363281 4.5 -24.238281 4.5 -28.375 L 4.5 -28.59375 C 4.5 -32.726562 5.28125 -36.597656 6.84375 -40.203125 C 8.414062 -43.804688 10.59375 -46.960938 13.375 -49.671875 C 16.164062 -52.390625 19.453125 -54.535156 23.234375 -56.109375 C 27.015625 -57.679688 31.15625 -58.46875 35.65625 -58.46875 C 40.082031 -58.46875 44.1875 -57.695312 47.96875 -56.15625 C 51.75 -54.625 55.015625 -52.519531 57.765625 -49.84375 C 60.515625 -47.164062 62.675781 -44.023438 64.25 -40.421875 C 65.820312 -36.816406 66.609375 -32.941406 66.609375 -28.796875 L 66.609375 -28.59375 C 66.609375 -24.445312 65.820312 -20.570312 64.25 -16.96875 C 62.675781 -13.363281 60.492188 -10.203125 57.703125 -7.484375 C 54.921875 -4.773438 51.640625 -2.632812 47.859375 -1.0625 C 44.078125 0.5 39.9375 1.28125 35.4375 1.28125 Z M 35.65625 -12.75 C 38.007812 -12.75 40.097656 -13.15625 41.921875 -13.96875 C 43.742188 -14.789062 45.296875 -15.914062 46.578125 -17.34375 C 47.859375 -18.769531 48.835938 -20.425781 49.515625 -22.3125 C 50.203125 -24.207031 50.546875 -26.226562 50.546875 -28.375 L 50.546875 -28.59375 C 50.546875 -30.726562 50.1875 -32.742188 49.46875 -34.640625 C 48.757812 -36.535156 47.722656 -38.210938 46.359375 -39.671875 C 45.003906 -41.140625 43.398438 -42.300781 41.546875 -43.15625 C 39.691406 -44.007812 37.65625 -44.4375 35.4375 -44.4375 C 33.082031 -44.4375 30.992188 -44.023438 29.171875 -43.203125 C 27.359375 -42.378906 25.804688 -41.253906 24.515625 -39.828125 C 23.234375 -38.398438 22.253906 -36.738281 21.578125 -34.84375 C 20.898438 -32.957031 20.5625 -30.941406 20.5625 -28.796875 L 20.5625 -28.59375 C 20.5625 -26.445312 20.914062 -24.425781 21.625 -22.53125 C 22.34375 -20.644531 23.378906 -18.96875 24.734375 -17.5 C 26.085938 -16.039062 27.675781 -14.882812 29.5 -14.03125 C 31.320312 -13.175781 33.375 -12.75 35.65625 -12.75 Z M 35.65625 -12.75 "/></g></g></g><g fill="#ffdd52" fill-opacity="1"><g transform="translate(924.249348, 290.601675)"><g/></g></g><g fill="#ffdd52" fill-opacity="1"><g transform="translate(956.370477, 290.601675)"><g><path d="M 44.109375 1.28125 C 38.617188 1.28125 33.515625 0.28125 28.796875 -1.71875 C 24.085938 -3.71875 20.019531 -6.445312 16.59375 -9.90625 C 13.164062 -13.363281 10.488281 -17.445312 8.5625 -22.15625 C 6.632812 -26.875 5.671875 -31.910156 5.671875 -37.265625 L 5.671875 -37.484375 C 5.671875 -42.835938 6.632812 -47.847656 8.5625 -52.515625 C 10.488281 -57.191406 13.164062 -61.296875 16.59375 -64.828125 C 20.019531 -68.367188 24.125 -71.15625 28.90625 -73.1875 C 33.6875 -75.21875 38.972656 -76.234375 44.765625 -76.234375 C 48.253906 -76.234375 51.441406 -75.945312 54.328125 -75.375 C 57.222656 -74.8125 59.847656 -74.03125 62.203125 -73.03125 C 64.566406 -72.03125 66.75 -70.816406 68.75 -69.390625 C 70.75 -67.960938 72.601562 -66.390625 74.3125 -64.671875 L 63.8125 -52.578125 C 60.882812 -55.210938 57.90625 -57.28125 54.875 -58.78125 C 51.84375 -60.28125 48.4375 -61.03125 44.65625 -61.03125 C 41.507812 -61.03125 38.597656 -60.421875 35.921875 -59.203125 C 33.242188 -57.992188 30.941406 -56.316406 29.015625 -54.171875 C 27.085938 -52.035156 25.585938 -49.554688 24.515625 -46.734375 C 23.453125 -43.921875 22.921875 -40.90625 22.921875 -37.6875 L 22.921875 -37.484375 C 22.921875 -34.265625 23.453125 -31.226562 24.515625 -28.375 C 25.585938 -25.519531 27.066406 -23.019531 28.953125 -20.875 C 30.847656 -18.738281 33.132812 -17.046875 35.8125 -15.796875 C 38.488281 -14.546875 41.4375 -13.921875 44.65625 -13.921875 C 48.9375 -13.921875 52.554688 -14.703125 55.515625 -16.265625 C 58.484375 -17.835938 61.429688 -19.984375 64.359375 -22.703125 L 74.84375 -12.09375 C 72.914062 -10.03125 70.914062 -8.175781 68.84375 -6.53125 C 66.78125 -4.882812 64.515625 -3.472656 62.046875 -2.296875 C 59.585938 -1.117188 56.894531 -0.226562 53.96875 0.375 C 51.039062 0.976562 47.753906 1.28125 44.109375 1.28125 Z M 44.109375 1.28125 "/></g></g></g><g fill="#ffdd52" fill-opacity="1"><g transform="translate(1035.388484, 290.601675)"><g><path d="M 23.5625 1.078125 C 20.84375 1.078125 18.285156 0.703125 15.890625 -0.046875 C 13.503906 -0.796875 11.414062 -1.921875 9.625 -3.421875 C 7.84375 -4.921875 6.4375 -6.757812 5.40625 -8.9375 C 4.375 -11.113281 3.859375 -13.628906 3.859375 -16.484375 L 3.859375 -16.703125 C 3.859375 -19.847656 4.425781 -22.5625 5.5625 -24.84375 C 6.707031 -27.125 8.296875 -29.015625 10.328125 -30.515625 C 12.367188 -32.015625 14.796875 -33.140625 17.609375 -33.890625 C 20.429688 -34.640625 23.554688 -35.015625 26.984375 -35.015625 C 29.910156 -35.015625 32.460938 -34.800781 34.640625 -34.375 C 36.816406 -33.945312 38.941406 -33.375 41.015625 -32.65625 L 41.015625 -33.625 C 41.015625 -37.050781 39.976562 -39.65625 37.90625 -41.4375 C 35.832031 -43.21875 32.765625 -44.109375 28.703125 -44.109375 C 25.554688 -44.109375 22.785156 -43.84375 20.390625 -43.3125 C 18.003906 -42.78125 15.488281 -42.015625 12.84375 -41.015625 L 8.78125 -53.4375 C 11.914062 -54.789062 15.195312 -55.894531 18.625 -56.75 C 22.050781 -57.601562 26.191406 -58.03125 31.046875 -58.03125 C 35.546875 -58.03125 39.382812 -57.476562 42.5625 -56.375 C 45.738281 -55.269531 48.363281 -53.679688 50.4375 -51.609375 C 52.570312 -49.472656 54.140625 -46.847656 55.140625 -43.734375 C 56.140625 -40.628906 56.640625 -37.148438 56.640625 -33.296875 L 56.640625 0 L 40.90625 0 L 40.90625 -6.203125 C 38.90625 -3.992188 36.507812 -2.226562 33.71875 -0.90625 C 30.9375 0.414062 27.550781 1.078125 23.5625 1.078125 Z M 28.484375 -10.171875 C 32.335938 -10.171875 35.421875 -11.097656 37.734375 -12.953125 C 40.054688 -14.804688 41.21875 -17.234375 41.21875 -20.234375 L 41.21875 -23.125 C 39.789062 -23.769531 38.203125 -24.285156 36.453125 -24.671875 C 34.710938 -25.066406 32.84375 -25.265625 30.84375 -25.265625 C 27.34375 -25.265625 24.59375 -24.585938 22.59375 -23.234375 C 20.59375 -21.878906 19.59375 -19.914062 19.59375 -17.34375 L 19.59375 -17.125 C 19.59375 -14.914062 20.410156 -13.203125 22.046875 -11.984375 C 23.691406 -10.773438 25.835938 -10.171875 28.484375 -10.171875 Z M 28.484375 -10.171875 "/></g></g></g><g fill="#ffdd52" fill-opacity="1"><g transform="translate(1098.774158, 290.601675)"><g><path d="M 7.28125 -57.390625 L 23.5625 -57.390625 L 23.5625 -45.828125 C 25.195312 -49.753906 27.441406 -52.894531 30.296875 -55.25 C 33.160156 -57.601562 37.019531 -58.675781 41.875 -58.46875 L 41.875 -41.4375 L 41.015625 -41.4375 C 35.585938 -41.4375 31.320312 -39.796875 28.21875 -36.515625 C 25.113281 -33.234375 23.5625 -28.128906 23.5625 -21.203125 L 23.5625 0 L 7.28125 0 Z M 7.28125 -57.390625 "/></g></g></g><g fill="#ffdd52" fill-opacity="1"><g transform="translate(1143.529605, 290.601675)"><g><path d="M 2.140625 -57.390625 L 19.375 -57.390625 L 32.234375 -18.953125 L 45.1875 -57.390625 L 62.109375 -57.390625 L 39.515625 0.421875 L 24.734375 0.421875 Z M 2.140625 -57.390625 "/></g></g></g><g fill="#ffdd52" fill-opacity="1"><g transform="translate(1205.095006, 290.601675)"><g><path d="M 23.5625 1.078125 C 20.84375 1.078125 18.285156 0.703125 15.890625 -0.046875 C 13.503906 -0.796875 11.414062 -1.921875 9.625 -3.421875 C 7.84375 -4.921875 6.4375 -6.757812 5.40625 -8.9375 C 4.375 -11.113281 3.859375 -13.628906 3.859375 -16.484375 L 3.859375 -16.703125 C 3.859375 -19.847656 4.425781 -22.5625 5.5625 -24.84375 C 6.707031 -27.125 8.296875 -29.015625 10.328125 -30.515625 C 12.367188 -32.015625 14.796875 -33.140625 17.609375 -33.890625 C 20.429688 -34.640625 23.554688 -35.015625 26.984375 -35.015625 C 29.910156 -35.015625 32.460938 -34.800781 34.640625 -34.375 C 36.816406 -33.945312 38.941406 -33.375 41.015625 -32.65625 L 41.015625 -33.625 C 41.015625 -37.050781 39.976562 -39.65625 37.90625 -41.4375 C 35.832031 -43.21875 32.765625 -44.109375 28.703125 -44.109375 C 25.554688 -44.109375 22.785156 -43.84375 20.390625 -43.3125 C 18.003906 -42.78125 15.488281 -42.015625 12.84375 -41.015625 L 8.78125 -53.4375 C 11.914062 -54.789062 15.195312 -55.894531 18.625 -56.75 C 22.050781 -57.601562 26.191406 -58.03125 31.046875 -58.03125 C 35.546875 -58.03125 39.382812 -57.476562 42.5625 -56.375 C 45.738281 -55.269531 48.363281 -53.679688 50.4375 -51.609375 C 52.570312 -49.472656 54.140625 -46.847656 55.140625 -43.734375 C 56.140625 -40.628906 56.640625 -37.148438 56.640625 -33.296875 L 56.640625 0 L 40.90625 0 L 40.90625 -6.203125 C 38.90625 -3.992188 36.507812 -2.226562 33.71875 -0.90625 C 30.9375 0.414062 27.550781 1.078125 23.5625 1.078125 Z M 28.484375 -10.171875 C 32.335938 -10.171875 35.421875 -11.097656 37.734375 -12.953125 C 40.054688 -14.804688 41.21875 -17.234375 41.21875 -20.234375 L 41.21875 -23.125 C 39.789062 -23.769531 38.203125 -24.285156 36.453125 -24.671875 C 34.710938 -25.066406 32.84375 -25.265625 30.84375 -25.265625 C 27.34375 -25.265625 24.59375 -24.585938 22.59375 -23.234375 C 20.59375 -21.878906 19.59375 -19.914062 19.59375 -17.34375 L 19.59375 -17.125 C 19.59375 -14.914062 20.410156 -13.203125 22.046875 -11.984375 C 23.691406 -10.773438 25.835938 -10.171875 28.484375 -10.171875 Z M 28.484375 -10.171875 "/></g></g></g><g fill="#ffdd52" fill-opacity="1"><g transform="translate(1268.480741, 290.601675)"><g><path d="M 8.03125 -78.171875 L 24.3125 -78.171875 L 24.3125 0 L 8.03125 0 Z M 8.03125 -78.171875 "/></g></g></g><g fill="#ffdd52" fill-opacity="1"><g transform="translate(1300.816016, 290.601675)"><g><path d="M 7.28125 -78.171875 L 23.5625 -78.171875 L 23.5625 -49.25 C 24.488281 -50.46875 25.503906 -51.628906 26.609375 -52.734375 C 27.710938 -53.835938 28.941406 -54.816406 30.296875 -55.671875 C 31.660156 -56.535156 33.160156 -57.21875 34.796875 -57.71875 C 36.441406 -58.21875 38.300781 -58.46875 40.375 -58.46875 C 46.582031 -58.46875 51.378906 -56.570312 54.765625 -52.78125 C 58.160156 -49 59.859375 -43.789062 59.859375 -37.15625 L 59.859375 0 L 43.578125 0 L 43.578125 -32.015625 C 43.578125 -35.867188 42.71875 -38.773438 41 -40.734375 C 39.289062 -42.703125 36.867188 -43.6875 33.734375 -43.6875 C 30.585938 -43.6875 28.101562 -42.703125 26.28125 -40.734375 C 24.46875 -38.773438 23.5625 -35.867188 23.5625 -32.015625 L 23.5625 0 L 7.28125 0 Z M 7.28125 -78.171875 "/></g></g></g><g fill="#ffdd52" fill-opacity="1"><g transform="translate(1367.520925, 290.601675)"><g><path d="M 35.4375 1.28125 C 31.007812 1.28125 26.90625 0.515625 23.125 -1.015625 C 19.34375 -2.546875 16.078125 -4.648438 13.328125 -7.328125 C 10.578125 -10.003906 8.414062 -13.144531 6.84375 -16.75 C 5.28125 -20.363281 4.5 -24.238281 4.5 -28.375 L 4.5 -28.59375 C 4.5 -32.726562 5.28125 -36.597656 6.84375 -40.203125 C 8.414062 -43.804688 10.59375 -46.960938 13.375 -49.671875 C 16.164062 -52.390625 19.453125 -54.535156 23.234375 -56.109375 C 27.015625 -57.679688 31.15625 -58.46875 35.65625 -58.46875 C 40.082031 -58.46875 44.1875 -57.695312 47.96875 -56.15625 C 51.75 -54.625 55.015625 -52.519531 57.765625 -49.84375 C 60.515625 -47.164062 62.675781 -44.023438 64.25 -40.421875 C 65.820312 -36.816406 66.609375 -32.941406 66.609375 -28.796875 L 66.609375 -28.59375 C 66.609375 -24.445312 65.820312 -20.570312 64.25 -16.96875 C 62.675781 -13.363281 60.492188 -10.203125 57.703125 -7.484375 C 54.921875 -4.773438 51.640625 -2.632812 47.859375 -1.0625 C 44.078125 0.5 39.9375 1.28125 35.4375 1.28125 Z M 35.65625 -12.75 C 38.007812 -12.75 40.097656 -13.15625 41.921875 -13.96875 C 43.742188 -14.789062 45.296875 -15.914062 46.578125 -17.34375 C 47.859375 -18.769531 48.835938 -20.425781 49.515625 -22.3125 C 50.203125 -24.207031 50.546875 -26.226562 50.546875 -28.375 L 50.546875 -28.59375 C 50.546875 -30.726562 50.1875 -32.742188 49.46875 -34.640625 C 48.757812 -36.535156 47.722656 -38.210938 46.359375 -39.671875 C 45.003906 -41.140625 43.398438 -42.300781 41.546875 -43.15625 C 39.691406 -44.007812 37.65625 -44.4375 35.4375 -44.4375 C 33.082031 -44.4375 30.992188 -44.023438 29.171875 -43.203125 C 27.359375 -42.378906 25.804688 -41.253906 24.515625 -39.828125 C 23.234375 -38.398438 22.253906 -36.738281 21.578125 -34.84375 C 20.898438 -32.957031 20.5625 -30.941406 20.5625 -28.796875 L 20.5625 -28.59375 C 20.5625 -26.445312 20.914062 -24.425781 21.625 -22.53125 C 22.34375 -20.644531 23.378906 -18.96875 24.734375 -17.5 C 26.085938 -16.039062 27.675781 -14.882812 29.5 -14.03125 C 31.320312 -13.175781 33.375 -12.75 35.65625 -12.75 Z M 35.65625 -12.75 "/></g></g></g><path stroke-linecap="butt" transform="matrix(0, -1.003883, 1.003883, 0, 482.516228, 314.174582)" fill="none" stroke-linejoin="miter" d="M -0.00119427 3.999492 L 269.744368 3.999492 " stroke="#ffdd52" stroke-width="8" stroke-opacity="1" stroke-miterlimit="4"/></svg>