<svg width="113" height="71" viewBox="0 0 113 71" fill="none" xmlns="http://www.w3.org/2000/svg">
<g clip-path="url(#clip0_64_44)">
<path fill-rule="evenodd" clip-rule="evenodd" d="M45.7022 46.3602H31.4702V30.5643H43.8292C46.695 30.5643 49.1917 30.8627 50.8719 32.1422C56.3737 36.334 54.532 46.3602 45.7022 46.3602ZM27.7252 36.3942C27.7252 38.7838 27.0415 41.7738 26.3283 43.8298L23.4819 50.186C21.4271 54.299 20.7969 55.0828 20.7969 60.0881C20.7969 63.685 22.6792 67.318 24.8705 69.5362C27.0747 71.7683 25.9887 71.3708 31.4702 71.3708V54.8225H40.0842C40.6525 54.8225 40.3037 54.8679 41.0686 55.7147L53.6131 70.1968C54.0726 70.6823 54.3235 70.6972 54.5025 71.3708H65.7386C65.7386 70.1014 65.5689 70.4822 63.9976 68.6059C63.6673 68.2112 63.4043 68.0342 63.0888 67.6377L58.4635 62.3165C58.1489 61.9217 57.8896 61.7318 57.5436 61.3593L53.8963 57.124C52.9617 56.115 51.896 55.0272 51.132 53.882C51.705 53.6068 52.934 53.3946 53.5919 53.1556C54.4176 52.8554 55.1871 52.5533 55.9234 52.1114C60.2073 49.5411 63.3037 45.2632 63.3037 39.5908V37.3337C63.3037 31.8485 59.7146 26.6431 55.5008 24.2971C49.5312 20.9735 43.9178 21.914 36.7137 21.914C32.0321 21.914 27.3506 21.914 22.669 21.914C22.8563 22.7219 25.1473 26.6755 25.8799 28.4684C26.9105 30.9951 27.7252 33.4125 27.7252 36.3942Z" fill="white"/>
<path fill-rule="evenodd" clip-rule="evenodd" d="M68.1726 45.6079C68.1726 51.0672 68.7363 55.7787 71.3447 60.2873C72.6189 62.4898 73.3044 63.6442 75.2411 65.5891C78.952 69.3148 85.3451 72.4993 92.7033 72.4993C97.7474 72.4993 101.125 72.2677 105.622 70.2404C106.883 69.6724 108.512 68.8172 109.586 68.0157C110.425 67.3912 112.409 65.9412 112.927 65.1657L106.607 58.7252C105.181 59.7286 104.173 61.0156 101.614 62.0793C90.3459 66.7658 77.3484 61.3427 77.3484 46.5484C77.3484 37.6442 83.9187 30.0001 93.0779 30.0001C97.1043 30.0001 100.419 30.3327 103.94 32.8196L105.999 34.5133C107.935 33.4839 111.175 29.0031 112.365 28.6834C111.213 26.9554 107.309 24.4417 105.377 23.479C98.4376 20.0173 89.8965 20.286 82.8318 23.0954C77.4481 25.2376 72.6032 30.1307 70.4442 35.4779C69.3084 38.29 68.1726 41.7117 68.1726 45.6079Z" fill="white"/>
<path fill-rule="evenodd" clip-rule="evenodd" d="M23.2309 70.4313C22.1468 68.3734 16.9319 64.4235 19.0337 56.0604C19.6556 53.5865 20.7508 51.1404 21.7953 49.0556C25.8559 40.9584 27.0765 34.959 22.645 26.2633C20.5035 22.0585 17.6138 17.8084 17.6138 11.5718C17.2761 11.6941 17.134 11.4356 16.6007 12.9987C16.3064 13.8604 16.1726 14.1059 16.1117 15.1427C15.845 19.6856 17.0796 22.8785 19.0208 27.0823C19.5938 28.323 20.1751 29.3329 20.5884 30.5856C24.6906 43.0219 17.3508 45.4615 15.4151 55.9992C15.2582 56.8544 15.2287 57.4094 15.0949 58.3119C14.4417 62.7103 17.0214 65.7827 20.1539 68.2557C20.8588 68.8116 22.4633 70.2246 23.2309 70.4313Z" fill="white"/>
<path fill-rule="evenodd" clip-rule="evenodd" d="M13.8678 3.86095C13.8678 9.54074 22.1071 9.85206 22.1071 3.67286C22.1071 -1.2314 13.8678 -1.49733 13.8678 3.86095Z" fill="white"/>
<path fill-rule="evenodd" clip-rule="evenodd" d="M-0.175964 64.7894C-0.175964 70.2978 7.09734 69.74 7.00969 65.0025C6.91927 60.1242 -0.175964 60.5282 -0.175964 64.7894Z" fill="white"/>
<path fill-rule="evenodd" clip-rule="evenodd" d="M15.1789 71.5588C15.703 72.2769 16.8987 72.4715 17.6396 73.0367C18.7034 73.8493 18.5983 73.8289 20.808 73.9929C22.2178 74.0976 23.337 74.0485 24.5134 74.408C26.7998 75.1075 25.091 76.7318 27.9125 76.0721C27.9125 74.584 27.6698 73.9623 26.0921 72.4474C25.1058 71.5014 22.2695 70.2376 20.8514 69.6084C19.8632 69.1711 19.7442 69.4472 18.9267 69.8669C17.7291 70.4822 16.382 70.9195 15.1789 71.5588Z" fill="white"/>
<path fill-rule="evenodd" clip-rule="evenodd" d="M1.13422 53.882C1.13422 58.134 7.2828 58.1229 7.38891 54.0451C7.40828 53.2927 7.12503 52.5172 6.64248 51.9242C4.97062 49.8672 1.13422 50.8624 1.13422 53.882Z" fill="white"/>
<path fill-rule="evenodd" clip-rule="evenodd" d="M11.4338 68.5503C11.6377 69.3166 12.2079 69.5621 12.7975 70.0013C13.1666 70.2765 14.223 71.1827 14.617 71.1827C15.2057 71.1827 19.0688 69.4361 19.6732 69.1146C19.3429 68.6189 17.2466 67.2337 17.2392 67.2337L11.4338 68.5503Z" fill="white"/>
<path fill-rule="evenodd" clip-rule="evenodd" d="M7.50146 44.6683C7.50146 48.3523 12.183 48.4209 12.183 44.6683C12.183 41.9239 7.50146 41.9239 7.50146 44.6683Z" fill="white"/>
<path fill-rule="evenodd" clip-rule="evenodd" d="M11.2465 67.9861C12.1065 67.9861 15.4446 67.1022 16.4891 66.8575C16.4134 65.944 14.9547 64.6014 14.8043 64.6014L9.74169 64.9915C8.30235 65.2889 10.8055 67.9861 11.2465 67.9861Z" fill="white"/>
<path fill-rule="evenodd" clip-rule="evenodd" d="M8.25067 62.1562C8.25067 62.7205 8.43797 62.8919 8.57083 63.3394C8.77382 64.0241 8.75629 64.4698 9.58668 64.5513L11.0528 64.4086C11.933 64.3808 12.7588 64.3716 13.377 64.29C15.4013 64.0241 14.3531 64.4911 13.6814 61.5928C12.6822 61.5928 11.683 61.5956 10.6846 61.5919C9.74538 61.5891 8.25067 61.2862 8.25067 62.1562Z" fill="white"/>
<path fill-rule="evenodd" clip-rule="evenodd" d="M8.06335 58.2072V60.8405C8.64924 60.8886 8.69906 61.0323 9.32094 60.9785L13.3059 60.8405L13.245 59.2338C13.2441 59.2051 13.2312 58.6927 13.2302 58.689C13.0808 57.6299 11.8444 58.02 8.99893 58.02C8.70368 58.02 8.28941 58.1192 8.06335 58.2072Z" fill="white"/>
<path fill-rule="evenodd" clip-rule="evenodd" d="M8.25067 57.6438C12.8224 57.6438 13.5855 58.3008 13.7599 55.4275C13.8217 54.4037 13.3124 55.0115 11.5132 54.7428C10.6025 54.6066 9.3108 54.361 8.88361 55.0819C8.71569 55.3654 8.2599 57.2065 8.25067 57.6438Z" fill="white"/>
<path fill-rule="evenodd" clip-rule="evenodd" d="M11.6211 36.9585V37.7099C11.6211 40.0699 15.5535 40.0578 15.5535 37.7099C15.5535 37.0613 15.6411 36.4961 14.9169 35.9041C13.5781 34.8107 11.6211 35.8318 11.6211 36.9585Z" fill="white"/>
<path fill-rule="evenodd" clip-rule="evenodd" d="M9.56082 54.0701C13.1029 54.0701 13.7082 55.1569 14.6391 53.5299C14.9233 53.0333 15.1604 52.6497 15.1789 51.8139C13.8558 51.8139 12.7754 51.4377 11.2465 51.4377C10.6366 51.4377 9.62079 53.3492 9.56082 54.0701Z" fill="white"/>
<path fill-rule="evenodd" clip-rule="evenodd" d="M11.4338 50.6854C12.0419 50.9791 14.7702 51.4377 15.7408 51.4377C16.1034 50.8939 16.8 49.9497 16.8646 49.1807C15.3957 49.1807 13.9785 48.6173 12.5576 48.6173C12.2236 49.1186 11.5796 50.0563 11.4338 50.6854Z" fill="white"/>
<path fill-rule="evenodd" clip-rule="evenodd" d="M14.0551 45.9841C17.5584 45.9841 19.2321 47.1673 19.4858 44.1041C15.8838 44.1041 14.7701 42.9033 14.0551 45.9841Z" fill="white"/>
<path fill-rule="evenodd" clip-rule="evenodd" d="M12.9322 48.2411C14.092 48.3375 15.9576 48.7368 17.0519 48.9935C17.5861 48.1911 18.0825 47.9437 18.362 46.7364L13.8687 46.3602C13.4784 46.9458 13.0023 47.3896 12.9322 48.2411Z" fill="white"/>
<path fill-rule="evenodd" clip-rule="evenodd" d="M12.5567 21.914C12.7569 22.3309 12.8935 23.0166 12.9996 23.0045L15.8949 22.671C15.9613 22.6626 15.6541 21.9177 15.5535 21.5378C14.1391 21.5378 13.5449 21.4229 12.5567 21.914ZM12.9664 23.2983C13.0199 23.5558 13.0429 23.655 13.1481 23.9422C13.5947 25.1579 13.8318 24.5463 16.6773 24.5463C16.6653 24.0163 16.4466 23.5355 16.1689 22.9675C15.3634 23.2816 13.8678 23.2964 12.9664 23.2983Z" fill="white"/>
<path fill-rule="evenodd" clip-rule="evenodd" d="M15.3662 43.5398C16.3922 43.5398 16.4651 43.7056 17.42 43.7344C18.2107 43.7575 19.0623 43.7279 19.8604 43.7279C20.0191 41.8108 21.739 41.847 16.8646 41.847C15.8349 41.847 15.4446 42.5938 15.3662 43.5398Z" fill="white"/>
<path fill-rule="evenodd" clip-rule="evenodd" d="M10.1227 30C10.1227 32.1913 13.1186 31.6595 13.1186 30.3762C13.1186 28.8409 12.7744 28.4953 11.2465 28.4953C10.6394 28.4953 10.1227 29.3125 10.1227 30Z" fill="white"/>
<path fill-rule="evenodd" clip-rule="evenodd" d="M16.6773 39.4028C17.4173 39.576 20.9843 40.144 20.9843 38.8385C20.9843 37.6896 20.7619 37.8675 19.305 37.8916C18.554 37.9045 17.8029 37.898 17.0519 37.898C16.9319 38.416 16.7972 38.8858 16.6773 39.4028Z" fill="white"/>
<path fill-rule="evenodd" clip-rule="evenodd" d="M16.6773 41.4708H19.8605C20.5774 41.4708 21.261 39.967 20.2351 39.967H17.0519C16.4715 39.967 15.5904 41.4708 16.6773 41.4708Z" fill="white"/>
<path fill-rule="evenodd" clip-rule="evenodd" d="M17.2392 36.7704V37.5218H20.9842C20.9842 35.3759 21.3939 35.8299 17.4265 35.8299C17.3287 36.2515 17.2392 36.2617 17.2392 36.7704Z" fill="white"/>
<path fill-rule="evenodd" clip-rule="evenodd" d="M16.6773 32.2571L17.0777 33.5645C20.5792 33.6052 21.1291 33.9323 20.0478 31.8809C19.3262 31.8809 17.3047 32.1098 16.6773 32.2571Z" fill="white"/>
<path fill-rule="evenodd" clip-rule="evenodd" d="M17.2392 34.5133C17.2392 35.7539 17.1276 35.4537 20.9833 35.4537C20.9833 33.6682 20.9999 33.949 17.8011 33.949C17.3693 33.949 17.2392 34.0806 17.2392 34.5133Z" fill="white"/>
<path fill-rule="evenodd" clip-rule="evenodd" d="M13.6814 24.9234C13.7386 25.6239 13.9748 25.9176 14.2424 26.4272C18.709 26.4272 17.5621 25.7814 16.8646 24.7354C15.75 24.7354 15.0211 24.9234 13.6814 24.9234Z" fill="white"/>
<path fill-rule="evenodd" clip-rule="evenodd" d="M9.74811 24.9234C11.467 24.9234 11.467 22.2902 9.74811 22.2902C8.12331 22.2902 8.12331 24.9234 9.74811 24.9234Z" fill="white"/>
<path fill-rule="evenodd" clip-rule="evenodd" d="M15.9281 30C21.3625 30 18.1941 28.3081 18.1748 28.3081C17.4173 28.3081 16.37 28.36 15.7353 28.5092C14.6862 28.7547 15.5729 29.4672 15.9281 30Z" fill="white"/>
<path fill-rule="evenodd" clip-rule="evenodd" d="M16.1154 30.5643C16.1154 31.6734 16.6404 31.7864 17.2853 31.7503C18.279 31.6929 19.1048 31.5678 19.8604 31.5048C19.7239 29.8638 19.5384 30.1881 16.6773 30.1881C16.3709 30.1881 16.1154 30.3012 16.1154 30.5643Z" fill="white"/>
<path fill-rule="evenodd" clip-rule="evenodd" d="M14.4297 26.8034L14.8301 28.1108C16.2113 28.12 17.4071 28.2034 18.3621 27.7438C17.9146 26.8062 18.0862 26.4986 17.0039 26.5597C15.9327 26.6209 15.2924 26.6014 14.4297 26.8034Z" fill="white"/>
<path fill-rule="evenodd" clip-rule="evenodd" d="M12.3703 20.4102C12.4691 20.8382 12.5152 20.842 12.5576 21.3497C13.7312 21.3497 14.2313 21.384 15.1789 21.1616C15.1042 20.2619 14.9621 20.034 14.2424 20.034C13.5117 20.034 12.851 20.1776 12.3703 20.4102Z" fill="white"/>
<path fill-rule="evenodd" clip-rule="evenodd" d="M12.3703 19.0935C12.3703 19.9765 12.2439 20.147 13.8853 19.8598C14.9907 19.6661 14.6714 19.5309 14.2424 18.7173C13.6916 18.7294 12.7366 18.9166 12.3703 19.0935Z" fill="white"/>
<path fill-rule="evenodd" clip-rule="evenodd" d="M12.5567 18.5292H14.0551C14.0191 18.0984 13.8826 17.4007 13.4932 17.4007C12.5705 17.4007 12.5567 17.6055 12.5567 18.5292Z" fill="white"/>
<path fill-rule="evenodd" clip-rule="evenodd" d="M23.2309 70.4313V70.6184L23.4496 70.4619L23.2309 70.4313Z" fill="white"/>
</g>
<defs>
<clipPath id="clip0_64_44">
<rect width="113" height="71" fill="white"/>
</clipPath>
</defs>
</svg>
