<?xml version="1.0" standalone="no"?>
<!DOCTYPE svg PUBLIC "-//W3C//DTD SVG 20010904//EN"
 "http://www.w3.org/TR/2001/REC-SVG-20010904/DTD/svg10.dtd">
<svg version="1.0" xmlns="http://www.w3.org/2000/svg"
 width="260.000000pt" height="260.000000pt" viewBox="0 0 260.000000 260.000000"
 preserveAspectRatio="xMidYMid meet">
<metadata>
Created by potrace 1.14, written by Peter Selinger 2001-2017
</metadata>
<g transform="translate(0.000000,260.000000) scale(0.100000,-0.100000)"
fill="#000000" stroke="none">
<path d="M433 2138 c-27 -13 -46 -70 -34 -101 10 -25 37 -51 63 -60 28 -10 78
13 93 44 45 85 -34 160 -122 117z"/>
<path d="M452 1870 c-20 -57 -8 -148 32 -245 79 -189 89 -238 70 -332 -14 -69
-33 -111 -43 -96 -3 6 -15 13 -26 16 -14 3 -11 5 10 6 23 1 31 6 32 22 2 18
-3 20 -45 17 -38 -2 -48 -7 -51 -23 -2 -11 -7 -22 -11 -25 -4 -3 -17 -25 -29
-50 -12 -25 -27 -53 -33 -62 -16 -22 -8 -29 40 -35 39 -5 40 -5 65 46 l26 51
-42 2 -42 1 50 6 c28 4 51 6 53 5 2 -1 -6 -17 -16 -35 -36 -64 -62 -151 -68
-223 -6 -60 -3 -78 14 -111 21 -42 91 -113 132 -135 l24 -13 -26 31 c-62 74
-85 166 -65 261 5 26 31 93 57 151 106 231 106 321 1 530 -56 110 -81 179 -83
227 -2 44 -13 50 -26 13z m-8 -758 c3 -5 -8 -6 -25 -4 -16 2 -29 6 -29 8 0 8
49 4 54 -4z"/>
<path d="M373 1767 c3 -9 1 -18 -6 -21 -9 -3 -8 -8 3 -15 8 -6 10 -11 4 -11
-19 0 6 -90 25 -90 13 0 13 -2 2 -9 -17 -11 -6 -31 17 -32 11 0 12 -3 5 -6
-22 -8 -14 -33 10 -34 18 -1 18 -2 4 -6 -17 -4 -17 -6 -3 -21 14 -16 16 -21
16 -42 0 -5 6 -8 13 -6 6 1 9 1 5 -1 -12 -7 -9 -33 3 -33 8 0 8 -5 -1 -15 -10
-12 -8 -16 11 -24 18 -7 19 -10 7 -10 -16 -1 -23 -12 -19 -34 1 -4 -3 -16 -9
-27 -8 -15 -6 -19 13 -23 21 -4 21 -4 1 -6 -12 0 -25 -8 -28 -17 -5 -12 2 -15
41 -12 48 3 74 27 31 29 -22 1 -19 2 21 15 10 3 11 7 1 19 -7 8 -17 12 -23 8
-6 -3 -7 -1 -3 5 4 6 12 9 19 6 9 -3 13 7 12 33 0 34 -3 39 -30 44 l-30 7 27
1 c20 1 26 5 22 16 -4 8 -16 16 -28 16 -16 1 -17 2 -3 6 25 7 21 33 -5 34 -20
0 -21 1 -5 8 17 6 17 8 3 20 -9 7 -14 17 -11 21 3 5 1 11 -5 15 -5 3 -10 15
-10 26 0 10 -4 19 -10 19 -5 0 -10 9 -10 20 0 12 -7 20 -17 20 -14 0 -15 2 -4
9 9 6 10 11 2 15 -6 4 -9 12 -5 17 3 6 -4 13 -16 16 -16 4 -18 8 -8 14 11 8
11 10 0 18 -8 4 -13 12 -12 17 1 5 -4 10 -11 13 -8 2 -10 -2 -6 -12z m37 -107
c0 -5 -5 -10 -11 -10 -5 0 -7 5 -4 10 3 6 8 10 11 10 2 0 4 -4 4 -10z"/>
<path d="M1962 1689 c-255 -55 -412 -259 -412 -534 0 -167 48 -294 149 -395
102 -103 234 -152 399 -149 153 2 270 42 365 122 l38 32 -70 69 -69 69 -39
-31 c-52 -42 -144 -73 -223 -74 -164 -3 -293 87 -340 236 -17 54 -19 173 -3
225 45 152 154 240 307 249 100 6 173 -10 237 -54 28 -19 53 -34 55 -34 8 0
124 120 124 128 0 11 -60 56 -120 90 -115 64 -254 82 -398 51z"/>
<path d="M591 1682 c-5 -2 10 -42 34 -90 92 -189 86 -277 -42 -539 -35 -71
-38 -84 -37 -163 0 -100 21 -153 86 -220 38 -38 44 -41 87 -39 l46 3 5 175 5
175 89 1 c100 1 81 13 187 -111 102 -117 156 -179 184 -210 l30 -32 113 1 c62
0 115 3 117 7 2 4 -9 22 -26 41 -100 112 -158 178 -189 214 -19 22 -47 53 -62
70 -16 16 -28 33 -28 36 0 4 19 12 43 18 45 13 114 62 148 105 37 47 60 114
63 184 7 171 -75 297 -230 354 -55 20 -79 22 -336 22 -153 1 -282 0 -287 -2z
m576 -206 c113 -69 97 -256 -26 -298 -22 -7 -99 -12 -203 -13 l-168 -1 0 169
0 169 183 -4 c158 -3 186 -6 214 -22z"/>
<path d="M291 1666 c-13 -16 -5 -46 13 -46 23 0 36 22 25 42 -12 22 -22 23
-38 4z"/>
<path d="M326 1534 c-12 -12 -13 -20 -6 -35 13 -23 46 -25 54 -3 10 25 7 33
-13 44 -15 7 -23 6 -35 -6z"/>
<path d="M356 1379 c-19 -27 -9 -58 20 -65 30 -8 54 11 54 42 0 39 -51 55 -74
23z"/>
<path d="M290 1242 c-51 -17 -27 -111 26 -100 27 5 52 54 39 74 -13 21 -44 33
-65 26z"/>
<path d="M146 1047 c-25 -25 -26 -33 -12 -74 16 -48 102 -40 119 11 7 22 5 33
-10 55 -27 35 -66 39 -97 8z"/>
<path d="M317 1030 l-18 -30 30 0 c17 0 31 -4 31 -8 0 -4 -15 -6 -34 -4 -30 3
-35 1 -44 -27 -8 -23 -8 -31 1 -31 8 0 8 -3 -1 -12 -7 -7 -12 -24 -12 -38 0
-25 2 -26 56 -25 l56 0 -5 37 c-3 21 -1 41 4 44 5 3 9 16 9 30 0 17 -4 23 -12
18 -7 -4 -8 -3 -4 5 4 6 12 9 17 6 9 -6 36 41 28 49 -2 2 -22 7 -44 10 -37 6
-41 5 -58 -24z"/>
<path d="M155 842 c-36 -7 -55 -33 -55 -73 0 -73 75 -105 125 -54 54 54 5 143
-70 127z"/>
<path d="M277 833 c-3 -5 -1 -18 4 -31 8 -21 15 -23 61 -21 67 3 70 4 56 34
-10 22 -18 25 -64 25 -29 0 -55 -3 -57 -7z"/>
<path d="M343 772 c-25 -2 -43 -8 -43 -15 1 -17 25 -47 39 -47 6 0 11 -8 11
-18 0 -23 55 -56 83 -48 19 4 20 4 5 -7 -14 -12 -11 -15 25 -34 23 -12 69 -24
101 -27 40 -4 67 -13 81 -26 44 -41 64 -6 25 43 -24 30 -138 90 -153 80 -5 -3
-7 -1 -4 4 4 6 -11 20 -33 31 -22 10 -37 22 -33 26 10 10 -27 45 -45 43 -10
-1 -36 -3 -59 -5z m85 -57 c-2 -3 -20 -7 -39 -10 l-34 -6 35 14 c33 12 50 13
38 2z m62 -55 c-8 -5 -19 -10 -25 -10 -5 0 -3 5 5 10 8 5 20 10 25 10 6 0 3
-5 -5 -10z"/>
<path d="M238 600 c-26 -27 -30 -36 -25 -67 8 -47 36 -74 78 -78 42 -3 74 17
88 56 14 40 6 70 -24 97 -37 32 -80 29 -117 -8z"/>
</g>
</svg>
